<svg width="40" height="40" viewBox="0 0 40 40" fill="none" xmlns="http://www.w3.org/2000/svg">
<path d="M19.902 0C8.9111 0 0 8.6565 0 19.3333C0 30.0102 8.9111 38.6667 19.902 38.6667C30.8928 38.6667 39.8039 30.0102 39.8039 19.3333C39.8039 8.6565 30.8928 0 19.902 0ZM16.585 25.7778H13.268V16.1111H16.585V25.7778ZM14.9265 14.6756C13.9198 14.6756 13.1021 13.8765 13.1021 12.8889C13.1021 11.9029 13.9181 11.1022 14.9265 11.1022C15.9348 11.1022 16.7508 11.9029 16.7508 12.8889C16.7508 13.8765 15.9332 14.6756 14.9265 14.6756ZM28.1944 25.7778H24.8808V21.1684C24.8808 18.1379 21.5605 18.3941 21.5605 21.1684V25.7778H18.2435V16.1111H21.5605V17.8721C23.0067 15.2685 28.1944 15.0752 28.1944 20.3661V25.7778Z" fill="#D3D3D3"/>
</svg>
